<svg width="33" height="33" viewBox="0 0 33 33" fill="none" xmlns="http://www.w3.org/2000/svg">
<rect width="33" height="33" fill="#F2F2F2"/>
<rect x="-24" y="-5144" width="1920" height="5250" fill="white"/>
<path fill-rule="evenodd" clip-rule="evenodd" d="M16.9891 0.98758C25.8256 0.98758 32.9891 8.15106 32.9891 16.9874C32.9891 25.8241 25.8256 32.9876 16.9891 32.9876C8.15254 32.9876 0.98912 25.8241 0.98912 16.9874C0.98912 8.15106 8.15254 0.98758 16.9891 0.98758Z" fill="#070716"/>
<g clip-path="url(#clip0_0_1)">
<path d="M19.3285 10.9887H20.9474V8.12675C20.6681 8.08775 19.7076 8 18.589 8C16.255 8 14.6561 9.49025 14.6561 12.2292V14.75H12.0805V17.9495H14.6561V26H17.8139V17.9503H20.2854L20.6777 14.7508H17.8132V12.5465C17.8139 11.6217 18.0592 10.9887 19.3285 10.9887Z" fill="white"/>
</g>
<defs>
<clipPath id="clip0_0_1">
<rect width="17.7323" height="18" fill="white" transform="translate(7.50923 8)"/>
</clipPath>
</defs>
</svg>
