<svg width="33" height="33" viewBox="0 0 33 33" fill="none" xmlns="http://www.w3.org/2000/svg">
<rect width="33" height="33" fill="#F2F2F2"/>
<rect x="-145" y="-5144" width="1920" height="5250" fill="white"/>
<path fill-rule="evenodd" clip-rule="evenodd" d="M16.9891 0.987793C25.8256 0.987793 32.9891 8.15128 32.9891 16.9876C32.9891 25.8243 25.8256 32.9878 16.9891 32.9878C8.15254 32.9878 0.98912 25.8243 0.98912 16.9876C0.98912 8.15128 8.15254 0.987793 16.9891 0.987793Z" fill="#070716"/>
<g clip-path="url(#clip0_0_1)">
<path d="M24.9843 13.704C24.9469 12.8539 24.8094 12.2694 24.6124 11.763C24.4093 11.2254 24.0967 10.7441 23.6872 10.344C23.2871 9.93768 22.8026 9.62195 22.2713 9.42196C21.7619 9.22502 21.1805 9.08754 20.3304 9.05006C19.4739 9.0094 19.202 9 17.0297 9C14.8574 9 14.5855 9.0094 13.7321 9.04688C12.882 9.08437 12.2975 9.22197 11.7912 9.41878C11.2535 9.62195 10.7722 9.93451 10.3721 10.344C9.96579 10.7441 9.65018 11.2286 9.45006 11.7599C9.25313 12.2694 9.11565 12.8507 9.07817 13.7009C9.03751 14.5574 9.02811 14.8293 9.02811 17.0016C9.02811 19.1739 9.03751 19.4458 9.07499 20.2991C9.11247 21.1492 9.25007 21.7337 9.44701 22.2401C9.65018 22.7777 9.96579 23.259 10.3721 23.6591C10.7722 24.0654 11.2567 24.3812 11.788 24.5812C12.2975 24.7781 12.8788 24.9156 13.7291 24.9531C14.5823 24.9907 14.8543 25 17.0266 25C19.1989 25 19.4708 24.9907 20.3241 24.9531C21.1743 24.9156 21.7587 24.7781 22.2651 24.5812C23.3403 24.1654 24.1905 23.3153 24.6062 22.2401C24.803 21.7306 24.9406 21.1492 24.9781 20.2991C25.0156 19.4458 25.025 19.1739 25.025 17.0016C25.025 14.8293 25.0218 14.5574 24.9843 13.704ZM23.5435 20.2366C23.5091 21.018 23.3778 21.4399 23.2684 21.7212C22.9996 22.4183 22.4464 22.9715 21.7493 23.2403C21.468 23.3497 21.043 23.481 20.2647 23.5153C19.4208 23.5529 19.1677 23.5622 17.0328 23.5622C14.898 23.5622 14.6418 23.5529 13.8009 23.5153C13.0195 23.481 12.5975 23.3497 12.3162 23.2403C11.9694 23.1121 11.6536 22.909 11.3973 22.6433C11.1317 22.3838 10.9285 22.0713 10.8003 21.7244C10.6909 21.4431 10.5597 21.018 10.5253 20.2397C10.4877 19.3958 10.4785 19.1426 10.4785 17.0078C10.4785 14.873 10.4877 14.6167 10.5253 13.776C10.5597 12.9946 10.6909 12.5726 10.8003 12.2913C10.9285 11.9443 11.1317 11.6287 11.4005 11.3723C11.6598 11.1066 11.9724 10.9034 12.3194 10.7754C12.6007 10.666 13.0258 10.5347 13.8041 10.5003C14.648 10.4628 14.9012 10.4534 17.0359 10.4534C19.1739 10.4534 19.427 10.4628 20.2678 10.5003C21.0492 10.5347 21.4712 10.666 21.7525 10.7754C22.0994 10.9034 22.4151 11.1066 22.6714 11.3723C22.9371 11.6317 23.1402 11.9443 23.2684 12.2913C23.3778 12.5726 23.5091 12.9976 23.5435 13.776C23.581 14.6199 23.5904 14.873 23.5904 17.0078C23.5904 19.1426 23.581 19.3927 23.5435 20.2366Z" fill="white"/>
<path d="M17.0297 12.8916C14.7606 12.8916 12.9195 14.7325 12.9195 17.0018C12.9195 19.271 14.7606 21.112 17.0297 21.112C19.2989 21.112 21.1398 19.271 21.1398 17.0018C21.1398 14.7325 19.2989 12.8916 17.0297 12.8916ZM17.0297 19.6679C15.5576 19.6679 14.3635 18.474 14.3635 17.0018C14.3635 15.5296 15.5576 14.3356 17.0297 14.3356C18.5019 14.3356 19.6958 15.5296 19.6958 17.0018C19.6958 18.474 18.5019 19.6679 17.0297 19.6679Z" fill="white"/>
<path d="M22.262 12.7286C22.262 13.2585 21.8324 13.6881 21.3024 13.6881C20.7725 13.6881 20.3428 13.2585 20.3428 12.7286C20.3428 12.1986 20.7725 11.769 21.3024 11.769C21.8324 11.769 22.262 12.1986 22.262 12.7286Z" fill="white"/>
</g>
<defs>
<clipPath id="clip0_0_1">
<rect width="16" height="16" fill="white" transform="translate(9 9)"/>
</clipPath>
</defs>
</svg>
