<svg width="33" height="33" viewBox="0 0 33 33" fill="none" xmlns="http://www.w3.org/2000/svg">
<rect width="33" height="33" fill="#F2F2F2"/>
<rect x="-106" y="-5144" width="1920" height="5250" fill="white"/>
<path fill-rule="evenodd" clip-rule="evenodd" d="M16.9891 0.98758C25.8257 0.98758 32.9891 8.15106 32.9891 16.9874C32.9891 25.8241 25.8257 32.9876 16.9891 32.9876C8.15257 32.9876 0.98912 25.8241 0.98912 16.9874C0.98912 8.15106 8.15257 0.98758 16.9891 0.98758Z" fill="#070716"/>
<g clip-path="url(#clip0_0_1)">
<path d="M22.6 10H11.4C10.63 10 10 10.63 10 11.4V22.6C10 23.37 10.63 24 11.4 24H22.6C23.37 24 24 23.37 24 22.6V11.4C24 10.63 23.37 10 22.6 10ZM14.2 21.9H12.1V15.6H14.2V21.9ZM13.15 14.41C12.45 14.41 11.89 13.85 11.89 13.15C11.89 12.45 12.45 11.89 13.15 11.89C13.85 11.89 14.41 12.45 14.41 13.15C14.41 13.85 13.85 14.41 13.15 14.41ZM21.9 21.9H19.8V18.19C19.8 17.63 19.31 17.14 18.75 17.14C18.19 17.14 17.7 17.63 17.7 18.19V21.9H15.6V15.6H17.7V16.44C18.05 15.88 18.82 15.46 19.45 15.46C20.78 15.46 21.9 16.58 21.9 17.91V21.9Z" fill="white"/>
</g>
<defs>
<clipPath id="clip0_0_1">
<rect width="14" height="14" fill="white" transform="translate(10 10)"/>
</clipPath>
</defs>
</svg>
