<svg width="33" height="33" viewBox="0 0 33 33" fill="none" xmlns="http://www.w3.org/2000/svg">
<rect width="33" height="33" fill="#F2F2F2"/>
<rect x="-65" y="-5144" width="1920" height="5250" fill="white"/>
<path fill-rule="evenodd" clip-rule="evenodd" d="M16.9891 0.98758C25.8256 0.98758 32.989 8.15106 32.989 16.9874C32.989 25.8241 25.8256 32.9876 16.9891 32.9876C8.1525 32.9876 0.98905 25.8241 0.98905 16.9874C0.98905 8.15106 8.1525 0.98758 16.9891 0.98758Z" fill="#070716"/>
<g clip-path="url(#clip0_0_1)">
<path d="M27 10.7988C26.2563 11.125 25.4637 11.3412 24.6375 11.4462C25.4875 10.9388 26.1363 10.1412 26.4412 9.18C25.6488 9.6525 24.7738 9.98625 23.8412 10.1725C23.0887 9.37125 22.0162 8.875 20.8462 8.875C18.5763 8.875 16.7487 10.7175 16.7487 12.9763C16.7487 13.3012 16.7762 13.6137 16.8438 13.9112C13.435 13.745 10.4188 12.1113 8.3925 9.6225C8.03875 10.2363 7.83125 10.9388 7.83125 11.695C7.83125 13.115 8.5625 14.3737 9.6525 15.1025C8.99375 15.09 8.3475 14.8988 7.8 14.5975C7.8 14.61 7.8 14.6262 7.8 14.6425C7.8 16.635 9.22125 18.29 11.085 18.6712C10.7512 18.7625 10.3875 18.8062 10.01 18.8062C9.7475 18.8062 9.4825 18.7913 9.23375 18.7362C9.765 20.36 11.2725 21.5538 13.065 21.5925C11.67 22.6838 9.89875 23.3412 7.98125 23.3412C7.645 23.3412 7.3225 23.3263 7 23.285C8.81625 24.4563 10.9688 25.125 13.29 25.125C20.835 25.125 24.96 18.875 24.96 13.4575C24.96 13.2762 24.9538 13.1013 24.945 12.9275C25.7588 12.35 26.4425 11.6288 27 10.7988Z" fill="white"/>
</g>
<defs>
<clipPath id="clip0_0_1">
<rect width="20" height="20" fill="white" transform="translate(7 7)"/>
</clipPath>
</defs>
</svg>
